<svg xmlns="http://www.w3.org/2000/svg" version="1.1" xmlns:xlink="http://www.w3.org/1999/xlink" xmlns:svgjs="http://svgjs.dev/svgjs" width="1000" height="257" viewBox="0 0 1000 257"><g transform="matrix(1,0,0,1,-0.6060572369948432,0.39881110818120646)"><svg viewBox="0 0 396 102" data-background-color="#ffffff" preserveAspectRatio="xMidYMid meet" height="257" width="1000" xmlns="http://www.w3.org/2000/svg" xmlns:xlink="http://www.w3.org/1999/xlink"><g id="tight-bounds" transform="matrix(1,0,0,1,0.23999868113190814,-0.1582830079162818)"><svg viewBox="0 0 395.52 102.31656601583259" height="102.31656601583259" width="395.52"><g><svg viewBox="0 0 555.5933659484207 143.72574156811342" height="102.31656601583259" width="395.52"><g transform="matrix(1,0,0,1,0,19.86368787229354)"><svg viewBox="0 0 395.52 103.99836582352634" height="103.99836582352634" width="395.52"><g id="textblocktransform"><svg viewBox="0 0 395.52 103.99836582352634" height="103.99836582352634" width="395.52" id="textblock"><g><svg viewBox="0 0 395.52 69.23625768267698" height="69.23625768267698" width="395.52"><g transform="matrix(1,0,0,1,0,0)"><svg width="395.52" viewBox="0.550000011920929 -38.099998474121094 219.63999938964844 38.44999694824219" height="69.23625768267698" data-palette-color="#ca3433"><path d="M33-37.45L33-37.7Q34.05-38.1 35.95-38.1 37.85-38.1 39.35-37.85L39.35-37.85Q37.8-26.35 36.93-17.03 36.05-7.7 35.98-7.2 35.9-6.7 35.9-6.3L35.9-6.3Q35.95-5 37.15-5L37.15-5Q40.15-5 45.5-11.9L45.5-11.9Q46.45-9.25 46.6-8.35L46.6-8.35Q44.2-4.55 40.83-2.13 37.45 0.3 34.45 0.3 31.45 0.3 30.3-1.25 29.15-2.8 29.15-4.7L29.15-4.7Q29.15-5.15 29.28-6.45 29.4-7.75 31.25-22.65L31.25-22.65 23.05-3.7 18.8-3.7 16.35-22.35 12.85-6.85Q12-3.15 10.08-1.4 8.15 0.35 5.85 0.35 3.55 0.35 2.1-1L2.1-1Q0.55-2.45 0.55-5.1L0.55-5.1Q0.55-10.4 8.75-14.15L8.75-14.15Q13.2-35.5 13.55-37.8L13.55-37.8Q14.75-38.1 16.78-38.1 18.8-38.1 19.55-38L19.55-38 19.9-38 23-14.75 33-37.45ZM4.1-5.95L4.1-5.95Q4.1-4.35 5.35-4.35L5.35-4.35Q6.2-4.35 6.75-5.7L6.75-5.7Q7.45-7.35 7.9-10.05L7.9-10.05Q4.1-7.9 4.1-5.95ZM64.4 0.25L64.4 0.25Q59.8 0.25 58.3-2.95L58.3-2.95Q55.7 0.3 51.62 0.3 47.55 0.3 44.77-2.45 42-5.2 42-9.7L42-9.7Q42-16.25 45.85-20.15 49.7-24.05 55.6-24.05L55.6-24.05Q55.75-24.05 55.9-24.05L55.9-24.05Q58.4-24.05 60.5-23.2L60.5-23.2Q61.85-24.05 63.77-24.05 65.7-24.05 66.55-23.55L66.55-23.55Q66.1-19.85 65.6-16.28 65.1-12.7 64.9-11.2L64.9-11.2Q64.45-7.8 64.45-6.3L64.45-6.3Q64.45-4.3 66.05-4.3L66.05-4.3Q67.3-4.3 68.7-5.98 70.1-7.65 71.15-11.25L71.15-11.25Q72.6-9.95 73.15-8.35L73.15-8.35Q71.7-3.6 69.25-1.68 66.8 0.25 64.4 0.25ZM56.35-20.15L56.35-20.15Q53.15-20.15 51.27-17.73 49.4-15.3 49.05-10.5L49.05-10.5Q49-10.05 49-9.65L49-9.65Q49-7.2 50.17-5.75 51.35-4.3 53.2-4.3L53.2-4.3Q56.35-4.3 57.95-8.75L57.95-8.75 59.15-19.55Q57.7-20.15 56.35-20.15ZM90.1 0L83.65 0 85.55-16.6Q85.55-18 84.87-18.93 84.2-19.85 82.5-19.85 80.8-19.85 79.7-18.23 78.6-16.6 78.3-14.8L78.3-14.8Q76.55-2.35 76.35 0L76.35 0 69.65 0 72.4-23.5Q74.5-24.05 75.6-24.05L75.6-24.05Q78.75-24.05 79.05-21.95L79.05-21.95Q81.5-24.05 84.4-24.05L84.4-24.05Q90.2-24.05 91.8-20.6L91.8-20.6Q94.25-24.1 98.8-24.1L98.8-24.1Q102.15-24.1 104.1-22.38 106.05-20.65 106.05-18.05L106.05-18.05Q106.05-17.3 105.75-15.4L105.75-15.4Q104.6-7.9 104.6-6.6L104.6-6.6Q104.6-4.25 106.15-4.25L106.15-4.25Q107.45-4.25 108.92-5.98 110.4-7.7 111.3-11.3L111.3-11.3Q113-9.5 113.35-8.45L113.35-8.45Q110.75 0.25 104.15 0.25L104.15 0.25Q101.05 0.25 99.55-1.65 98.05-3.55 98.05-5.65L98.05-5.65 99.25-16.7Q99.25-18.05 98.55-18.95 97.85-19.85 96.32-19.85 94.8-19.85 93.65-18.7 92.5-17.55 92.05-15.75L92.05-15.75Q90.55-3.05 90.1 0L90.1 0ZM131.99 0.25L131.99 0.25Q127.39 0.25 125.89-2.95L125.89-2.95Q123.29 0.3 119.22 0.3 115.14 0.3 112.37-2.45 109.59-5.2 109.59-9.7L109.59-9.7Q109.59-16.25 113.44-20.15 117.29-24.05 123.19-24.05L123.19-24.05Q123.34-24.05 123.49-24.05L123.49-24.05Q125.99-24.05 128.09-23.2L128.09-23.2Q129.44-24.05 131.37-24.05 133.29-24.05 134.14-23.55L134.14-23.55Q133.69-19.85 133.19-16.28 132.69-12.7 132.49-11.2L132.49-11.2Q132.04-7.8 132.04-6.3L132.04-6.3Q132.04-4.3 133.64-4.3L133.64-4.3Q134.89-4.3 136.29-5.98 137.69-7.65 138.74-11.25L138.74-11.25Q140.19-9.95 140.74-8.35L140.74-8.35Q139.29-3.6 136.84-1.68 134.39 0.25 131.99 0.25ZM123.94-20.15L123.94-20.15Q120.74-20.15 118.87-17.73 116.99-15.3 116.64-10.5L116.64-10.5Q116.59-10.05 116.59-9.65L116.59-9.65Q116.59-7.2 117.77-5.75 118.94-4.3 120.79-4.3L120.79-4.3Q123.94-4.3 125.54-8.75L125.54-8.75 126.74-19.55Q125.29-20.15 123.94-20.15ZM168.49-37.45L168.49-37.7Q169.54-38.1 171.44-38.1 173.34-38.1 174.84-37.85L174.84-37.85Q173.29-26.35 172.42-17.03 171.54-7.7 171.47-7.2 171.39-6.7 171.39-6.3L171.39-6.3Q171.44-5 172.64-5L172.64-5Q175.64-5 180.99-11.9L180.99-11.9Q181.94-9.25 182.09-8.35L182.09-8.35Q179.69-4.55 176.31-2.13 172.94 0.3 169.94 0.3 166.94 0.3 165.79-1.25 164.64-2.8 164.64-4.7L164.64-4.7Q164.64-5.15 164.77-6.45 164.89-7.75 166.74-22.65L166.74-22.65 158.54-3.7 154.29-3.7 151.84-22.35 148.34-6.85Q147.49-3.15 145.56-1.4 143.64 0.35 141.34 0.35 139.04 0.35 137.59-1L137.59-1Q136.04-2.45 136.04-5.1L136.04-5.1Q136.04-10.4 144.24-14.15L144.24-14.15Q148.69-35.5 149.04-37.8L149.04-37.8Q150.24-38.1 152.27-38.1 154.29-38.1 155.04-38L155.04-38 155.39-38 158.49-14.75 168.49-37.45ZM139.59-5.95L139.59-5.95Q139.59-4.35 140.84-4.35L140.84-4.35Q141.69-4.35 142.24-5.7L142.24-5.7Q142.94-7.35 143.39-10.05L143.39-10.05Q139.59-7.9 139.59-5.95ZM181.44-36.83Q182.59-38 184.24-38 185.89-38 187.06-36.83 188.24-35.65 188.24-34 188.24-32.35 187.06-31.2 185.89-30.05 184.24-30.05 182.59-30.05 181.44-31.2 180.29-32.35 180.29-34 180.29-35.65 181.44-36.83ZM179.39-22.15Q179.89-23.05 181.29-23.53 182.69-24 184.06-24 185.44-24 186.49-23.65L186.49-23.65Q184.54-8.6 184.54-8.45L184.54-8.45Q184.29-7.45 184.29-6.78 184.29-6.1 184.39-5.6L184.39-5.6Q184.59-4.3 186.21-4.3 187.84-4.3 189.21-6.43 190.59-8.55 191.29-11.25L191.29-11.25Q191.64-11.05 192.39-10.05 193.14-9.05 193.29-8.55L193.29-8.55Q192.29-4.55 189.89-2.1L189.89-2.1Q187.49 0.35 184.14 0.35 180.79 0.35 179.16-1.3 177.54-2.95 177.54-5.55L177.54-5.55Q177.54-6.1 177.59-6.7L177.59-6.7 179.39-22.15ZM211.44 0.25L211.44 0.25Q206.84 0.25 205.34-2.95L205.34-2.95Q202.74 0.3 198.66 0.3 194.59 0.3 191.81-2.45 189.04-5.2 189.04-9.7L189.04-9.7Q189.04-16.25 192.89-20.15 196.74-24.05 202.64-24.05L202.64-24.05Q202.79-24.05 202.94-24.05L202.94-24.05Q205.44-24.05 207.54-23.2L207.54-23.2Q208.89-24.05 210.81-24.05 212.74-24.05 213.59-23.55L213.59-23.55Q213.14-19.85 212.64-16.28 212.14-12.7 211.94-11.2L211.94-11.2Q211.49-7.8 211.49-6.3L211.49-6.3Q211.49-4.3 213.09-4.3L213.09-4.3Q214.34-4.3 215.74-5.98 217.14-7.65 218.19-11.25L218.19-11.25Q219.64-9.95 220.19-8.35L220.19-8.35Q218.74-3.6 216.29-1.68 213.84 0.25 211.44 0.25ZM203.39-20.15L203.39-20.15Q200.19-20.15 198.31-17.73 196.44-15.3 196.09-10.5L196.09-10.5Q196.04-10.05 196.04-9.65L196.04-9.65Q196.04-7.2 197.21-5.75 198.39-4.3 200.24-4.3L200.24-4.3Q203.39-4.3 204.99-8.75L204.99-8.75 206.19-19.55Q204.74-20.15 203.39-20.15Z" opacity="1" transform="matrix(1,0,0,1,0,0)" fill="#ca3433" class="undefined-text-0" data-fill-palette-color="primary" id="text-0"></path></svg></g></svg></g><g transform="matrix(1,0,0,1,163.310208,85.58127645137263)"><svg viewBox="0 0 232.209792 18.41708937215371" height="18.41708937215371" width="232.209792"><g transform="matrix(1,0,0,1,0,0)"><svg width="232.209792" viewBox="3.2200000286102295 -37.84000015258789 477.0799865722656 37.84000015258789" height="18.41708937215371" data-palette-color="#ca3433"><path d="M35.03-6.35L35.03 0 12.13 0Q11.25 0 10.24-0.21 9.23-0.42 8.24-0.85 7.25-1.29 6.35-1.99 5.44-2.69 4.75-3.67 4.05-4.66 3.64-5.97 3.22-7.28 3.22-8.91L3.22-8.91 3.22-26.1Q3.22-26.98 3.43-27.99 3.64-29 4.08-29.99 4.52-30.98 5.22-31.88 5.93-32.79 6.92-33.48 7.91-34.18 9.2-34.59 10.5-35.01 12.13-35.01L12.13-35.01 35.03-35.01 35.03-28.66 12.13-28.66Q10.89-28.66 10.23-28 9.57-27.34 9.57-26.05L9.57-26.05 9.57-8.91Q9.57-7.69 10.24-7.02 10.91-6.35 12.13-6.35L12.13-6.35 35.03-6.35ZM68.72-17.5L68.72-8.91Q68.72-7.28 68.31-5.97 67.89-4.66 67.21-3.67 66.53-2.69 65.62-1.99 64.72-1.29 63.73-0.85 62.74-0.42 61.73-0.21 60.72 0 59.81 0L59.81 0 48.36 0Q47.04 0 45.48-0.46 43.92-0.93 42.59-1.99 41.26-3.05 40.37-4.75 39.48-6.45 39.48-8.91L39.48-8.91 39.48-17.5Q39.48-19.95 40.37-21.64 41.26-23.34 42.59-24.4 43.92-25.46 45.48-25.93 47.04-26.39 48.36-26.39L48.36-26.39 59.81-26.39Q62.25-26.39 63.96-25.51 65.67-24.63 66.72-23.3 67.77-21.97 68.25-20.41 68.72-18.85 68.72-17.5L68.72-17.5ZM62.38-8.91L62.38-17.46Q62.38-18.77 61.72-19.41 61.06-20.04 59.81-20.04L59.81-20.04 48.41-20.04Q47.14-20.04 46.48-19.4 45.82-18.75 45.82-17.5L45.82-17.5 45.82-8.91Q45.82-7.67 46.48-7.01 47.14-6.35 48.41-6.35L48.41-6.35 59.81-6.35Q61.11-6.35 61.74-7.01 62.38-7.67 62.38-8.91L62.38-8.91ZM102.83-17.5L102.83-8.91Q102.83-7.28 102.41-5.97 102-4.66 101.31-3.67 100.63-2.69 99.73-1.99 98.82-1.29 97.83-0.85 96.85-0.42 95.83-0.21 94.82 0 93.92 0L93.92 0 82.47 0Q81.15 0 79.58-0.46 78.02-0.93 76.69-1.99 75.36-3.05 74.47-4.75 73.58-6.45 73.58-8.91L73.58-8.91 73.58-17.5Q73.58-19.95 74.47-21.64 75.36-23.34 76.69-24.4 78.02-25.46 79.58-25.93 81.15-26.39 82.47-26.39L82.47-26.39 93.92-26.39Q96.36-26.39 98.07-25.51 99.78-24.63 100.83-23.3 101.87-21.97 102.35-20.41 102.83-18.85 102.83-17.5L102.83-17.5ZM96.48-8.91L96.48-17.46Q96.48-18.77 95.82-19.41 95.16-20.04 93.92-20.04L93.92-20.04 82.51-20.04Q81.25-20.04 80.59-19.4 79.93-18.75 79.93-17.5L79.93-17.5 79.93-8.91Q79.93-7.67 80.59-7.01 81.25-6.35 82.51-6.35L82.51-6.35 93.92-6.35Q95.21-6.35 95.84-7.01 96.48-7.67 96.48-8.91L96.48-8.91ZM124.28-14.4L139.23 0 130.07 0 117.28-12.35Q116.2-13.33 116.28-14.79L116.28-14.79Q116.33-15.48 116.63-16.08 116.94-16.67 117.47-17.09L117.47-17.09 129.07-26.44 139.23-26.44 124.28-14.4ZM114.67-37.55L114.67 0 108.32 0 108.32-37.55 114.67-37.55ZM166.15-35.01L166.15 0 159.8 0 159.8-35.01 166.15-35.01ZM196.86-26.39L196.86-20.04 185.78-20.04 185.78 0 179.36 0 179.36-20.04 171.1-20.04 171.1-26.39 179.36-26.39 179.36-35.01 185.78-35.01 185.78-26.39 196.86-26.39ZM250.54-35.01L250.54-23.29Q250.54-21.12 249.99-19.41 249.44-17.7 248.54-16.39 247.64-15.09 246.43-14.16 245.22-13.23 243.93-12.63 242.63-12.04 241.3-11.77 239.97-11.5 238.8-11.5L238.8-11.5 236.23-11.5 236.23 0 229.84 0 229.84-11.5 227.3-11.5Q226.13-11.5 224.8-11.77 223.47-12.04 222.16-12.63 220.85-13.23 219.66-14.16 218.46-15.09 217.55-16.39 216.63-17.7 216.08-19.42 215.53-21.14 215.53-23.29L215.53-23.29 215.53-35.01 221.88-35.01 221.88-23.29Q221.88-22.05 222.27-21.06 222.66-20.07 223.37-19.36 224.08-18.65 225.09-18.27 226.1-17.9 227.35-17.9L227.35-17.9 238.8-17.9Q239.7-18.04 240.65-18.27 241.61-18.51 242.39-19.07 243.17-19.63 243.68-20.63 244.19-21.63 244.19-23.29L244.19-23.29 244.19-35.01 250.54-35.01ZM283.96-17.5L283.96-8.91Q283.96-7.28 283.55-5.97 283.13-4.66 282.45-3.67 281.76-2.69 280.86-1.99 279.96-1.29 278.97-0.85 277.98-0.42 276.97-0.21 275.95 0 275.05 0L275.05 0 263.6 0Q262.28 0 260.72-0.46 259.16-0.93 257.83-1.99 256.5-3.05 255.6-4.75 254.71-6.45 254.71-8.91L254.71-8.91 254.71-17.5Q254.71-19.95 255.6-21.64 256.5-23.34 257.83-24.4 259.16-25.46 260.72-25.93 262.28-26.39 263.6-26.39L263.6-26.39 275.05-26.39Q277.49-26.39 279.2-25.51 280.91-24.63 281.96-23.3 283.01-21.97 283.49-20.41 283.96-18.85 283.96-17.5L283.96-17.5ZM277.61-8.91L277.61-17.46Q277.61-18.77 276.96-19.41 276.3-20.04 275.05-20.04L275.05-20.04 263.65-20.04Q262.38-20.04 261.72-19.4 261.06-18.75 261.06-17.5L261.06-17.5 261.06-8.91Q261.06-7.67 261.72-7.01 262.38-6.35 263.65-6.35L263.65-6.35 275.05-6.35Q276.34-6.35 276.98-7.01 277.61-7.67 277.61-8.91L277.61-8.91ZM318.21-26.39L318.21-3.2Q318.21-2.51 317.97-1.93 317.72-1.34 317.3-0.92 316.87-0.49 316.3-0.24 315.72 0 315.06 0L315.06 0 300.71 0Q299.54 0 298.2-0.27 296.87-0.54 295.58-1.14 294.29-1.73 293.08-2.65 291.87-3.56 290.97-4.87 290.06-6.18 289.51-7.89 288.96-9.59 288.96-11.74L288.96-11.74 288.96-26.39 295.31-26.39 295.31-11.74Q295.31-10.5 295.74-9.51 296.17-8.52 296.9-7.81 297.63-7.1 298.62-6.73 299.61-6.35 300.76-6.35L300.76-6.35 311.86-6.35 311.86-26.39 318.21-26.39ZM347.26-26.39L347.26-20.04 332.98-20.04Q331.69-20.04 331.03-19.4 330.37-18.75 330.37-17.5L330.37-17.5 330.37 0 324.02 0 324.02-17.5Q324.02-19.14 324.44-20.43 324.85-21.73 325.55-22.72 326.24-23.71 327.15-24.4 328.05-25.1 329.04-25.54 330.03-25.98 331.04-26.18 332.05-26.39 332.93-26.39L332.93-26.39 347.26-26.39ZM376.95-8.91L376.95-8.91Q376.95-7.28 376.53-5.97 376.12-4.66 375.43-3.67 374.75-2.69 373.85-1.99 372.94-1.29 371.95-0.85 370.97-0.42 369.95-0.21 368.94 0 368.04 0L368.04 0 350.85 0 350.85-6.35 367.99-6.35Q369.28-6.35 369.94-7.01 370.6-7.67 370.6-8.91L370.6-8.91Q370.48-11.45 368.04-11.45L368.04-11.45 358.2-11.45Q356.1-11.45 354.63-12.18 353.17-12.92 352.25-14.01 351.34-15.11 350.93-16.38 350.53-17.65 350.53-18.75L350.53-18.75Q350.53-20.87 351.29-22.33 352.05-23.78 353.19-24.68 354.34-25.59 355.68-25.99 357.03-26.39 358.2-26.39L358.2-26.39 373.8-26.39 373.8-20.04 358.25-20.04Q357.76-20.04 357.48-19.93 357.2-19.82 357.06-19.64 356.93-19.46 356.9-19.25 356.88-19.04 356.88-18.85L356.88-18.85Q356.9-18.46 357.03-18.24 357.15-18.02 357.33-17.92 357.51-17.82 357.75-17.81 357.98-17.8 358.2-17.8L358.2-17.8 368.04-17.8Q370.48-17.8 372.19-16.92 373.9-16.04 374.95-14.71 376-13.38 376.47-11.82 376.95-10.25 376.95-8.91ZM409.78-17.65L409.78-17.65Q409.78-16.33 409.32-14.81 408.85-13.28 407.82-11.98 406.78-10.67 405.11-9.79 403.43-8.91 401.04-8.91L401.04-8.91 389.59-8.91 389.59-14.94 401.04-14.94Q402.34-14.94 403.04-15.73 403.75-16.53 403.75-17.7L403.75-17.7Q403.75-18.95 402.96-19.65 402.16-20.36 401.04-20.36L401.04-20.36 389.59-20.36Q388.3-20.36 387.59-19.57 386.88-18.77 386.88-17.6L386.88-17.6 386.88-8.74Q386.88-7.47 387.68-6.76 388.47-6.05 389.64-6.05L389.64-6.05 401.04-6.05 401.04 0 389.59 0Q388.27 0 386.75-0.46 385.22-0.93 383.92-1.97 382.61-3 381.73-4.68 380.85-6.35 380.85-8.74L380.85-8.74 380.85-17.65Q380.85-18.97 381.32-20.5 381.78-22.02 382.82-23.33 383.85-24.63 385.53-25.51 387.2-26.39 389.59-26.39L389.59-26.39 401.04-26.39Q402.36-26.39 403.89-25.93 405.41-25.46 406.72-24.43 408.02-23.39 408.9-21.72 409.78-20.04 409.78-17.65ZM425.65-6.35L425.65 0 422.82 0Q421.45 0 419.9-0.46 418.35-0.93 417.01-1.99 415.66-3.05 414.78-4.75 413.91-6.45 413.91-8.91L413.91-8.91 413.91-37.55 420.25-37.55 420.25-8.91Q420.25-7.74 420.99-7.04 421.72-6.35 422.82-6.35L422.82-6.35 425.65-6.35ZM453.09-26.39L453.09-20.04 438.73-20.04 438.73-26.39 453.09-26.39ZM453.09-37.84L453.09-31.49 438.78-31.49Q437.49-31.49 436.83-30.85 436.17-30.2 436.17-28.96L436.17-28.96 436.17 0 429.82 0 429.82-28.96Q429.82-30.59 430.24-31.88 430.65-33.18 431.35-34.17 432.04-35.16 432.95-35.85 433.85-36.55 434.84-36.99 435.83-37.43 436.83-37.63 437.83-37.84 438.73-37.84L438.73-37.84 453.09-37.84ZM480.3-35.01L478.81-8.59 474.44-8.59 472.96-35.01 480.3-35.01ZM479.82-3.2L479.82-3.2Q479.82-2.54 479.56-1.97 479.3-1.39 478.88-0.96 478.45-0.54 477.87-0.29 477.3-0.05 476.67-0.05L476.67-0.05Q476.01-0.05 475.43-0.29 474.86-0.54 474.43-0.96 474.01-1.39 473.76-1.97 473.52-2.54 473.52-3.2L473.52-3.2Q473.52-3.83 473.76-4.41 474.01-4.98 474.43-5.41 474.86-5.83 475.43-6.09 476.01-6.35 476.67-6.35L476.67-6.35Q477.3-6.35 477.87-6.09 478.45-5.83 478.88-5.41 479.3-4.98 479.56-4.41 479.82-3.83 479.82-3.2Z" opacity="1" transform="matrix(1,0,0,1,0,0)" fill="#ca3433" class="undefined-text-1" data-fill-palette-color="secondary" id="text-1"></path></svg></g></svg></g></svg></g></svg></g><g transform="matrix(1,0,0,1,411.8650187686956,0)"><svg viewBox="0 0 143.72834717972503 143.72574156811342" height="143.72574156811342" width="143.72834717972503"><g><svg xmlns="http://www.w3.org/2000/svg" xmlns:xlink="http://www.w3.org/1999/xlink" version="1.1" x="0" y="0" viewBox="4.342358589172363 4.302999973297119 90.90265655517578 90.90100860595703" enable-background="new 0 0 100 100" xml:space="preserve" height="143.72574156811342" width="143.72834717972503" class="icon-icon-0" data-fill-palette-color="accent" id="icon-0"><path fill="#ca3433" d="M88.084 91.232c-0.887-0.887-0.887-2.33 0-3.215 0.859-0.857 2.354-0.858 3.215 0 0.885 0.885 0.885 2.326 0 3.215-0.43 0.43-1.001 0.666-1.607 0.666C89.084 91.898 88.514 91.662 88.084 91.232zM89.221 89.154c-0.26 0.26-0.26 0.682 0 0.941 0.252 0.252 0.689 0.25 0.94 0 0.259-0.261 0.26-0.684 0.001-0.941-0.125-0.125-0.293-0.194-0.471-0.194S89.346 89.029 89.221 89.154z" data-fill-palette-color="accent"></path><path fill="#ca3433" d="M87.809 94.281c-0.02-0.02-1.565-1.598-11.813-12.069C61.021 66.915 35.96 41.313 35.628 40.98c-1.151-1.152-3.205-1.449-4.942-1.684-0.52 0.065-1.061 0.098-1.609 0.098-0.001 0-0.001 0-0.001 0-5.374 0-11.604-3.02-16.663-8.079-3.859-3.859-6.56-8.436-7.604-12.888C3.731 13.836 4.535 9.911 7.073 7.373l0.341-0.341c1.785-1.785 4.302-2.729 7.277-2.729 5.381 0 11.603 3.009 16.643 8.05 5.626 5.626 8.669 12.608 7.961 18.253l0.013 0.096c0.22 1.633 0.492 3.666 1.631 4.806 0.378 0.376 32.956 32.268 46.868 45.885 3.959 3.877 6.494 6.357 6.51 6.373 0.539 0.539 0.875 1.307 0.922 2.106 0.052 0.851-0.235 1.653-0.784 2.202l-2.341 2.339c-0.51 0.51-1.223 0.791-2.01 0.791C89.232 95.205 88.395 94.867 87.809 94.281zM8.548 8.171L8.207 8.512C6.079 10.64 5.429 14.03 6.373 18.06c0.977 4.165 3.525 8.468 7.176 12.118 4.693 4.693 10.644 7.609 15.527 7.608 0.517 0 1.022-0.033 1.504-0.097 0.069-0.008 0.204-0.001 0.276 0.008 1.836 0.248 4.35 0.587 5.908 2.146 0.338 0.338 24.433 24.955 40.378 41.244 6.791 6.938 11.715 11.97 11.797 12.054 0.519 0.518 1.576 0.598 2.039 0.137l2.338-2.34c0.226-0.225 0.34-0.578 0.317-0.971-0.024-0.406-0.194-0.805-0.45-1.063-0.043-0.041-2.568-2.514-6.502-6.363-13.914-13.62-46.496-45.514-46.879-45.896-1.523-1.524-1.837-3.856-2.088-5.729l-0.027-0.201c-0.009-0.071-0.009-0.143 0-0.214 0.686-5.1-2.255-11.777-7.49-17.012-4.745-4.746-10.542-7.58-15.506-7.58C12.151 5.911 10.028 6.691 8.548 8.171z" data-fill-palette-color="accent"></path></svg></g></svg></g></svg></g><defs></defs></svg><rect width="395.52" height="102.31656601583259" fill="none" stroke="none" visibility="hidden"></rect></g></svg></g></svg>